# xmcd
#
# Track frame offsets: 
#        150
#        13239
#        33006
#        49503
#        59139
#        72915
#        86647
#        97996
#        110770
#        125808
#        136611
#        153847
#        165742
#        176992
#        186746
#        197367
#
# Disc length: 2817 seconds
#
# Revision: 0
# Processed by: cddbd v1.5.2PL0 Copyright (c) Steve Scherf et al.
# Submitted via: ExactAudioCopy v1.0b1
#
DISCID=e10aff10
DTITLE=Paul James Band - Lazy Crazy Blues
DYEAR=1900
DGENRE=Blues
TTITLE0=Joint Out Back
TTITLE1=Lazy Crazy Blues
TTITLE2=Mary Ann
TTITLE3=Good Old Rock and Roll
TTITLE4=Brokenhearted Lovers
TTITLE5=Mean and Evil
TTITLE6=Slow Jive
TTITLE7=Crazy Little Baby
TTITLE8=Suzette
TTITLE9=Anna Banana
TTITLE10=Hey Rosita
TTITLE11=I Got to Move
TTITLE12=I Don't Want to Get Married
TTITLE13=She Don't Care
TTITLE14=One More Heartache
TTITLE15=Lucky in Love
EXTD=
EXTT0=
EXTT1=
EXTT2=
EXTT3=
EXTT4=
EXTT5=
EXTT6=
EXTT7=
EXTT8=
EXTT9=
EXTT10=
EXTT11=
EXTT12=
EXTT13=
EXTT14=
EXTT15=
PLAYORDER=
